<svg xmlns="http://www.w3.org/2000/svg" xmlns:xlink="http://www.w3.org/1999/xlink" viewBox="0 0 300 300"><defs><style>.a{fill:none;}.b{fill:#05668d;}.c{clip-path:url(#a);}.d,.e{fill:#231f20;}.d{stroke:#fff;}.d,.f{stroke-miterlimit:10;}.f,.g{fill:#fff;}.f{stroke:#231f20;}</style><clipPath id="a"><rect class="a" width="300" height="300"/></clipPath></defs><title>SkyclopsPictures-Favicon</title><rect class="b" width="300" height="300"/><g class="c"><path class="d" d="M299.65,250.4c-1.7-1.16-3.76-1.09-4.6.15a12,12,0,0,1-13.67,3.65l-33.63-12.13c.05-.26.07-.42.07-.42l-36.49-28.26-6.48,2.36s13.22,10.73,24,19.51l-22-7.94v7.46l62.78,24.13s18.64,8.2,30.91-3.55h0a2,2,0,0,0,.71-.63C302.05,253.49,301.35,251.55,299.65,250.4Z"/><path class="e" d="M34.54,39.69c-71.9,0-133.72-1.1-178.78-3.19-45.62-2.1-69-5-69.38-8.52-.15-1.28,1.9-2.37,6.67-3.52,2.53-.61,5.78-1.21,9.68-1.81-13.64,2-32,4.75-35.28,5.54-6,1.44-11.15,4-11.12,4.31.14,1.1,5.68,6.41,71.7,8.74,47.09,1.66,111.68,2.19,186.81,1.52,10.69-.09,21.68-.21,32.67-.36,103.5-1.34,205.41-4.63,283.92-8.78-74.29,3.3-169.24,5.58-265.63,6C55.28,39.66,44.77,39.69,34.54,39.69Z"/><path class="d" d="M179.84,232.33V251h.81a15.44,15.44,0,0,0,30.65,0h.13V232.33Z"/><path class="d" d="M189.81,210.12c7.33-1.57,18.31-4.18,22.5,0s2.62,16.74,2.62,16.74h-2.75l.26,6.35s-9.61,4.18-34.27,1.37L178,228l-.13-1.31-2.75.07-.13-4.51S182.48,211.69,189.81,210.12Z"/><ellipse class="f" cx="202.68" cy="254.22" rx="6.12" ry="5.27" transform="translate(-74.38 424.34) rotate(-82.99)"/><polygon class="d" points="41.21 110.71 41.21 158.66 48.54 110.71 44.87 106 41.21 110.71"/><polygon class="d" points="40.41 101.74 35.68 51.81 -7.07 50.74 -7.07 57.16 -9.36 59.14 -10.58 39.9 -8.9 39.29 -7.99 46.16 42.09 45.25 81.64 48.61 78.28 51.35 41.21 51.97 46.98 100.21 40.41 101.74"/><polygon class="d" points="79.2 59.75 82.56 59.75 81.64 48.61 79.2 42.8 77.36 42.8 79.2 59.75"/><path class="d" d="M99.29,78.27l-68,24.06s-13.6,4.19,0,5.76,24.59-2.09,41.34,2.09,26.68-2.61,26.68-2.61Z"/><path class="d" d="M126,45V36s-6.28-9-14.52-12.95,18.1-9.54,21.7-9.54,32.29,5.35,19.25,9.65c-7.38,4-9.09,13.08-9.09,13.08L145.12,49H124.8Z"/><path class="d" d="M92.23,78.79s-12.56-14.13-7.85-22,25.9-13,25.9-13h36.89l10.59,5.5V65.84L96.94,83.5Z"/><path class="d" d="M126.5,221.11s-58.08-6.28-59.13-67.76S96.94,76.7,96.94,76.7s56.24-24.6,95.49-5.24,55.46,47.51,57,71.11,1,57.61-27.21,69.64S143.12,225.6,126.5,221.11Z"/><path class="d" d="M109.3,271.77a3.89,3.89,0,0,0-2.61,1h0l-.06.07-.18.17c-1.13,1.12-6.12,5.68-10.09,3.95-1.58-.68-9.06-6.44-18.12-13.63l38.92-44.44c-.59-7.66-7.46-4.52-7.46-4.52L71.85,258.24C61,249.54,49.4,240.06,43.35,235.1L80.45,196c.29-1.65-1.77-6.78-5.23-3.14L39.9,232.27l-.08-.06a3.22,3.22,0,0,0-.67-.55l0,0h0a3.26,3.26,0,0,0-1.72-.5A3.33,3.33,0,0,0,35,236.8h0a4.15,4.15,0,0,0,.51.43l56.31,47.17s9.21,3.47,20.2-5.92h0a3.92,3.92,0,0,0-2.73-6.73Z"/><path class="f" d="M103.61,76.43s15.3-9,19.62,14.13S133.82,184,133.82,184s-3.92,33.36,41.6,31.79,19.34-83.9,19.34-83.9l25.56-2s-9.59,68.16-2.83,73.69,14.93-.17,22.54-5.93c0,0,21.2-24.41,4.85-73.72-12.78-38.54-59.73-56.81-59.73-56.81S140.89,56.81,103.61,76.43Z"/><path class="f" d="M124.8,193.77H106s-16.48-47.09-16.09-66.71S93,83.89,107.33,81.14s12,31,12,31S116.16,189.85,124.8,193.77Z"/><path class="e" d="M49.82,111a91.57,91.57,0,0,1-4,19.53c-1.76,5-3.69,7.53-5.73,7.58a2.72,2.72,0,0,1-2-.73,5.82,5.82,0,0,1-.93-1.06A35.53,35.53,0,0,0,40,140.16a7.32,7.32,0,0,0,2.35,1.21c.63,0,3.75-.62,5.88-7.83a96.65,96.65,0,0,0,3.1-20.41c.08-1.17.14-2.37.19-3.57a157.12,157.12,0,0,0-1.68-31,143.5,143.5,0,0,1,.29,29C50.05,108.71,49.94,109.86,49.82,111Z"/><path class="e" d="M33.71,67.55a95.58,95.58,0,0,0-2.79,20.32c-.05,1.16-.09,2.36-.12,3.55-.36,14.28,1.11,28.28,3.59,37.16C32.49,120,31.86,106.75,33,93.22c.1-1.15.21-2.3.33-3.42a91,91,0,0,1,4-19.53c1.75-5,3.68-7.53,5.73-7.58a2.68,2.68,0,0,1,1.94.73,7.62,7.62,0,0,1,1.73,2.42,9.47,9.47,0,0,0-1.59-3.51C43.76,61,39,59.74,38.58,59.75,38,59.77,35.72,60.37,33.71,67.55Z"/><path class="e" d="M432.05,3.47c-46.88-1.53-111.18-1.87-186-1-10.64.12-21.58.28-32.51.45C82.89,5-45.28,10.22-126.55,16.21c78.3-4.92,199.83-8.53,323.69-9.07,10.51,0,21-.06,31.25-.06,71.9,0,133.72,1.1,178.78,3.18,45.62,2.1,69,5,69.39,8.52.15,1.28-1.91,2.37-6.67,3.52a202.91,202.91,0,0,1-22.14,3.45c14.35-1.15,26.37-2.21,32.13-3.43,12.46-2.63,23.67-11.08,23.58-11.86C503.32,9.36,497.77,5.61,432.05,3.47Z"/><polygon class="g" points="201.54 274.3 255.99 527.16 450.13 458.64 224.12 265.65 201.54 274.3"/></g></svg>
